whisper_init_from_file_with_params_no_state: loading model from '/Users/petthepotat/Documents/code/dated-projects/04-13-2025_speech-to-text-mac/backend/../assets/models/ggml-base.en.bin'
whisper_init_with_params_no_state: use gpu    = 1
whisper_init_with_params_no_state: flash attn = 0
whisper_init_with_params_no_state: gpu_device = 0
whisper_init_with_params_no_state: dtw        = 0
whisper_init_with_params_no_state: devices    = 3
whisper_init_with_params_no_state: backends   = 3
whisper_model_load: loading model
whisper_model_load: n_vocab       = 51864
whisper_model_load: n_audio_ctx   = 1500
whisper_model_load: n_audio_state = 512
whisper_model_load: n_audio_head  = 8
whisper_model_load: n_audio_layer = 6
whisper_model_load: n_text_ctx    = 448
whisper_model_load: n_text_state  = 512
whisper_model_load: n_text_head   = 8
whisper_model_load: n_text_layer  = 6
whisper_model_load: n_mels        = 80
whisper_model_load: ftype         = 1
whisper_model_load: qntvr         = 0
whisper_model_load: type          = 2 (base)
whisper_model_load: adding 1607 extra tokens
whisper_model_load: n_langs       = 99
whisper_default_buffer_type: using device Metal (Apple M2)
whisper_model_load:    Metal total size =   147.37 MB
whisper_model_load: model size    =  147.37 MB
whisper_backend_init_gpu: using Metal backend
ggml_metal_init: allocating
ggml_metal_init: found device: Apple M2
ggml_metal_init: picking default device: Apple M2
ggml_metal_init: using embedded metal library
ggml_metal_init: GPU name:   Apple M2
ggml_metal_init: GPU family: MTLGPUFamilyApple8  (1008)
ggml_metal_init: GPU family: MTLGPUFamilyCommon3 (3003)
ggml_metal_init: GPU family: MTLGPUFamilyMetal3  (5001)
ggml_metal_init: simdgroup reduction   = true
ggml_metal_init: simdgroup matrix mul. = true
ggml_metal_init: has bfloat            = true
ggml_metal_init: use bfloat            = false
ggml_metal_init: hasUnifiedMemory      = true
ggml_metal_init: recommendedMaxWorkingSetSize  = 11453.25 MB
ggml_metal_init: skipping kernel_get_rows_bf16                     (not supported)
ggml_metal_init: skipping kernel_mul_mv_bf16_f32                   (not supported)
ggml_metal_init: skipping kernel_mul_mv_bf16_f32_1row              (not supported)
ggml_metal_init: skipping kernel_mul_mv_bf16_f32_l4                (not supported)
ggml_metal_init: skipping kernel_mul_mv_bf16_bf16                  (not supported)
ggml_metal_init: skipping kernel_mul_mv_id_bf16_f32                (not supported)
ggml_metal_init: skipping kernel_mul_mm_bf16_f32                   (not supported)
ggml_metal_init: skipping kernel_mul_mm_id_bf16_f32                (not supported)
ggml_metal_init: skipping kernel_flash_attn_ext_bf16_h64           (not supported)
ggml_metal_init: skipping kernel_flash_attn_ext_bf16_h80           (not supported)
ggml_metal_init: skipping kernel_flash_attn_ext_bf16_h96           (not supported)
ggml_metal_init: skipping kernel_flash_attn_ext_bf16_h112          (not supported)
ggml_metal_init: skipping kernel_flash_attn_ext_bf16_h128          (not supported)
ggml_metal_init: skipping kernel_flash_attn_ext_bf16_h256          (not supported)
ggml_metal_init: skipping kernel_flash_attn_ext_vec_bf16_h128      (not supported)
ggml_metal_init: skipping kernel_flash_attn_ext_vec_bf16_h256      (not supported)
ggml_metal_init: skipping kernel_cpy_f32_bf16                      (not supported)
ggml_metal_init: skipping kernel_cpy_bf16_f32                      (not supported)
ggml_metal_init: skipping kernel_cpy_bf16_bf16                     (not supported)
whisper_backend_init: using BLAS backend
whisper_init_state: kv self size  =    6.29 MB
whisper_init_state: kv cross size =   18.87 MB
whisper_init_state: kv pad  size  =    3.15 MB
whisper_init_state: compute buffer (conv)   =   17.22 MB
whisper_init_state: compute buffer (encode) =   85.86 MB
whisper_init_state: compute buffer (cross)  =    4.65 MB
whisper_init_state: compute buffer (decode) =   97.27 MB
[2025-05-25 10:53:22,143] DEBUG in stt: Loading model: base.en
127.0.0.1 - - [25/May/2025 10:53:22] "[35m[1mGET /socket.io/?EIO=4&transport=websocket HTTP/1.1[0m" 500 -
Error on request:
Traceback (most recent call last):
  File "/Users/petthepotat/Documents/code/dated-projects/04-13-2025_speech-to-text-mac/.venv/lib/python3.11/site-packages/werkzeug/serving.py", line 370, in run_wsgi
    execute(self.server.app)
  File "/Users/petthepotat/Documents/code/dated-projects/04-13-2025_speech-to-text-mac/.venv/lib/python3.11/site-packages/werkzeug/serving.py", line 336, in execute
    write(b"")
  File "/Users/petthepotat/Documents/code/dated-projects/04-13-2025_speech-to-text-mac/.venv/lib/python3.11/site-packages/werkzeug/serving.py", line 261, in write
    assert status_set is not None, "write() before start_response"
AssertionError: write() before start_response
Progress:   0%
Progress: 100%
127.0.0.1 - - [25/May/2025 10:53:22] "POST /stt/transcribe_stream HTTP/1.1" 200 -
127.0.0.1 - - [25/May/2025 11:22:32] "OPTIONS /storage/get_objects HTTP/1.1" 200 -
127.0.0.1 - - [25/May/2025 11:22:32] "POST /storage/get_objects HTTP/1.1" 200 -
ffmpeg version 7.1.1 Copyright (c) 2000-2025 the FFmpeg developers
  built with Apple clang version 16.0.0 (clang-1600.0.26.6)
  configuration: --prefix=/opt/homebrew/Cellar/ffmpeg/7.1.1_1 --enable-shared --enable-pthreads --enable-version3 --cc=clang --host-cflags= --host-ldflags='-Wl,-ld_classic' --enable-ffplay --enable-gnutls --enable-gpl --enable-libaom --enable-libaribb24 --enable-libbluray --enable-libdav1d --enable-libharfbuzz --enable-libjxl --enable-libmp3lame --enable-libopus --enable-librav1e --enable-librist --enable-librubberband --enable-libsnappy --enable-libsrt --enable-libssh --enable-libsvtav1 --enable-libtesseract --enable-libtheora --enable-libvidstab --enable-libvmaf --enable-libvorbis --enable-libvpx --enable-libwebp --enable-libx264 --enable-libx265 --enable-libxml2 --enable-libxvid --enable-lzma --enable-libfontconfig --enable-libfreetype --enable-frei0r --enable-libass --enable-libopencore-amrnb --enable-libopencore-amrwb --enable-libopenjpeg --enable-libspeex --enable-libsoxr --enable-libzmq --enable-libzimg --disable-libjack --disable-indev=jack --enable-videotoolbox --enable-audiotoolbox --enable-neon
  libavutil      59. 39.100 / 59. 39.100
  libavcodec     61. 19.101 / 61. 19.101
  libavformat    61.  7.100 / 61.  7.100
  libavdevice    61.  3.100 / 61.  3.100
  libavfilter    10.  4.100 / 10.  4.100
  libswscale      8.  3.100 /  8.  3.100
  libswresample   5.  3.100 /  5.  3.100
  libpostproc    58.  3.100 / 58.  3.100
Input #0, matroska,webm, from '/Users/petthepotat/Documents/code/dated-projects/04-13-2025_speech-to-text-mac/backend/static/audio/recording_wlkr9GGRJJe2nSztAAAD.webm':
  Metadata:
    encoder         : Chrome
  Duration: N/A, start: 0.000000, bitrate: N/A
  Stream #0:0(eng): Audio: opus, 48000 Hz, mono, fltp (default)
Stream mapping:
  Stream #0:0 -> #0:0 (opus (native) -> pcm_s16le (native))
Press [q] to stop, [?] for help
Output #0, wav, to '/Users/petthepotat/Documents/code/dated-projects/04-13-2025_speech-to-text-mac/backend/static/audio/wlkr9GGRJJe2nSztAAAD.wav':
  Metadata:
    ISFT            : Lavf61.7.100
  Stream #0:0(eng): Audio: pcm_s16le ([1][0][0][0] / 0x0001), 16000 Hz, mono, s16, 256 kb/s (default)
      Metadata:
        encoder         : Lavc61.19.101 pcm_s16le
[matroska,webm @ 0x137f06150] File ended prematurely at pos. 10532 (0x2924)
[out#0/wav @ 0x137e07840] video:0KiB audio:161KiB subtitle:0KiB other streams:0KiB global headers:0KiB muxing overhead: 0.047238%
size=     161KiB time=00:00:05.16 bitrate= 256.1kbits/s speed= 596x    
127.0.0.1 - - [25/May/2025 11:22:44] "OPTIONS /stt/transcribe_stream HTTP/1.1" 200 -
Progress:   0%
Progress: 100%
127.0.0.1 - - [25/May/2025 11:22:46] "[35m[1mGET /socket.io/?EIO=4&transport=websocket HTTP/1.1[0m" 500 -
127.0.0.1 - - [25/May/2025 11:22:46] "POST /stt/transcribe_stream HTTP/1.1" 200 -
Error on request:
Traceback (most recent call last):
  File "/Users/petthepotat/Documents/code/dated-projects/04-13-2025_speech-to-text-mac/.venv/lib/python3.11/site-packages/werkzeug/serving.py", line 370, in run_wsgi
    execute(self.server.app)
  File "/Users/petthepotat/Documents/code/dated-projects/04-13-2025_speech-to-text-mac/.venv/lib/python3.11/site-packages/werkzeug/serving.py", line 336, in execute
    write(b"")
  File "/Users/petthepotat/Documents/code/dated-projects/04-13-2025_speech-to-text-mac/.venv/lib/python3.11/site-packages/werkzeug/serving.py", line 261, in write
    assert status_set is not None, "write() before start_response"
AssertionError: write() before start_response
ffmpeg version 7.1.1 Copyright (c) 2000-2025 the FFmpeg developers
  built with Apple clang version 16.0.0 (clang-1600.0.26.6)
  configuration: --prefix=/opt/homebrew/Cellar/ffmpeg/7.1.1_1 --enable-shared --enable-pthreads --enable-version3 --cc=clang --host-cflags= --host-ldflags='-Wl,-ld_classic' --enable-ffplay --enable-gnutls --enable-gpl --enable-libaom --enable-libaribb24 --enable-libbluray --enable-libdav1d --enable-libharfbuzz --enable-libjxl --enable-libmp3lame --enable-libopus --enable-librav1e --enable-librist --enable-librubberband --enable-libsnappy --enable-libsrt --enable-libssh --enable-libsvtav1 --enable-libtesseract --enable-libtheora --enable-libvidstab --enable-libvmaf --enable-libvorbis --enable-libvpx --enable-libwebp --enable-libx264 --enable-libx265 --enable-libxml2 --enable-libxvid --enable-lzma --enable-libfontconfig --enable-libfreetype --enable-frei0r --enable-libass --enable-libopencore-amrnb --enable-libopencore-amrwb --enable-libopenjpeg --enable-libspeex --enable-libsoxr --enable-libzmq --enable-libzimg --disable-libjack --disable-indev=jack --enable-videotoolbox --enable-audiotoolbox --enable-neon
  libavutil      59. 39.100 / 59. 39.100
  libavcodec     61. 19.101 / 61. 19.101
  libavformat    61.  7.100 / 61.  7.100
  libavdevice    61.  3.100 / 61.  3.100
  libavfilter    10.  4.100 / 10.  4.100
  libswscale      8.  3.100 /  8.  3.100
  libswresample   5.  3.100 /  5.  3.100
  libpostproc    58.  3.100 / 58.  3.100
Input #0, matroska,webm, from '/Users/petthepotat/Documents/code/dated-projects/04-13-2025_speech-to-text-mac/backend/static/audio/recording_sRecNisvJHW6kWyqAAAF.webm':
  Metadata:
    encoder         : Chrome
  Duration: N/A, start: 0.000000, bitrate: N/A
  Stream #0:0(eng): Audio: opus, 48000 Hz, mono, fltp (default)
Stream mapping:
  Stream #0:0 -> #0:0 (opus (native) -> pcm_s16le (native))
Press [q] to stop, [?] for help
Output #0, wav, to '/Users/petthepotat/Documents/code/dated-projects/04-13-2025_speech-to-text-mac/backend/static/audio/sRecNisvJHW6kWyqAAAF.wav':
  Metadata:
    ISFT            : Lavf61.7.100
  Stream #0:0(eng): Audio: pcm_s16le ([1][0][0][0] / 0x0001), 16000 Hz, mono, s16, 256 kb/s (default)
      Metadata:
        encoder         : Lavc61.19.101 pcm_s16le
[matroska,webm @ 0x14de325d0] File ended prematurely at pos. 14579 (0x38f3)
[out#0/wav @ 0x14de36530] video:0KiB audio:229KiB subtitle:0KiB other streams:0KiB global headers:0KiB muxing overhead: 0.033299%
size=     229KiB time=00:00:07.32 bitrate= 256.1kbits/s speed= 615x    
127.0.0.1 - - [25/May/2025 11:23:39] "OPTIONS /stt/transcribe_stream HTTP/1.1" 200 -
Progress:   0%
Progress: 100%
127.0.0.1 - - [25/May/2025 11:23:40] "[35m[1mGET /socket.io/?EIO=4&transport=websocket HTTP/1.1[0m" 500 -
127.0.0.1 - - [25/May/2025 11:23:40] "POST /stt/transcribe_stream HTTP/1.1" 200 -
Error on request:
Traceback (most recent call last):
  File "/Users/petthepotat/Documents/code/dated-projects/04-13-2025_speech-to-text-mac/.venv/lib/python3.11/site-packages/werkzeug/serving.py", line 370, in run_wsgi
    execute(self.server.app)
  File "/Users/petthepotat/Documents/code/dated-projects/04-13-2025_speech-to-text-mac/.venv/lib/python3.11/site-packages/werkzeug/serving.py", line 336, in execute
    write(b"")
  File "/Users/petthepotat/Documents/code/dated-projects/04-13-2025_speech-to-text-mac/.venv/lib/python3.11/site-packages/werkzeug/serving.py", line 261, in write
    assert status_set is not None, "write() before start_response"
AssertionError: write() before start_response
127.0.0.1 - - [25/May/2025 11:47:27] "OPTIONS /storage/get_objects HTTP/1.1" 200 -
127.0.0.1 - - [25/May/2025 11:47:27] "POST /storage/get_objects HTTP/1.1" 200 -
ffmpeg version 7.1.1 Copyright (c) 2000-2025 the FFmpeg developers
  built with Apple clang version 16.0.0 (clang-1600.0.26.6)
  configuration: --prefix=/opt/homebrew/Cellar/ffmpeg/7.1.1_1 --enable-shared --enable-pthreads --enable-version3 --cc=clang --host-cflags= --host-ldflags='-Wl,-ld_classic' --enable-ffplay --enable-gnutls --enable-gpl --enable-libaom --enable-libaribb24 --enable-libbluray --enable-libdav1d --enable-libharfbuzz --enable-libjxl --enable-libmp3lame --enable-libopus --enable-librav1e --enable-librist --enable-librubberband --enable-libsnappy --enable-libsrt --enable-libssh --enable-libsvtav1 --enable-libtesseract --enable-libtheora --enable-libvidstab --enable-libvmaf --enable-libvorbis --enable-libvpx --enable-libwebp --enable-libx264 --enable-libx265 --enable-libxml2 --enable-libxvid --enable-lzma --enable-libfontconfig --enable-libfreetype --enable-frei0r --enable-libass --enable-libopencore-amrnb --enable-libopencore-amrwb --enable-libopenjpeg --enable-libspeex --enable-libsoxr --enable-libzmq --enable-libzimg --disable-libjack --disable-indev=jack --enable-videotoolbox --enable-audiotoolbox --enable-neon
  libavutil      59. 39.100 / 59. 39.100
  libavcodec     61. 19.101 / 61. 19.101
  libavformat    61.  7.100 / 61.  7.100
  libavdevice    61.  3.100 / 61.  3.100
  libavfilter    10.  4.100 / 10.  4.100
  libswscale      8.  3.100 /  8.  3.100
  libswresample   5.  3.100 /  5.  3.100
  libpostproc    58.  3.100 / 58.  3.100
Input #0, matroska,webm, from '/Users/petthepotat/Documents/code/dated-projects/04-13-2025_speech-to-text-mac/backend/static/audio/recording_qiJXHgIIZiq_6XCzAAAH.webm':
  Metadata:
    encoder         : Chrome
  Duration: N/A, start: 0.000000, bitrate: N/A
  Stream #0:0(eng): Audio: opus, 48000 Hz, mono, fltp (default)
Stream mapping:
  Stream #0:0 -> #0:0 (opus (native) -> pcm_s16le (native))
Press [q] to stop, [?] for help
Output #0, wav, to '/Users/petthepotat/Documents/code/dated-projects/04-13-2025_speech-to-text-mac/backend/static/audio/qiJXHgIIZiq_6XCzAAAH.wav':
  Metadata:
    ISFT            : Lavf61.7.100
  Stream #0:0(eng): Audio: pcm_s16le ([1][0][0][0] / 0x0001), 16000 Hz, mono, s16, 256 kb/s (default)
      Metadata:
        encoder         : Lavc61.19.101 pcm_s16le
[matroska,webm @ 0x1428214c0] File ended prematurely at pos. 8974 (0x230e)
[out#0/wav @ 0x142821f30] video:0KiB audio:142KiB subtitle:0KiB other streams:0KiB global headers:0KiB muxing overhead: 0.053454%
size=     143KiB time=00:00:04.56 bitrate= 256.1kbits/s speed= 511x    
127.0.0.1 - - [25/May/2025 11:47:34] "OPTIONS /stt/transcribe_stream HTTP/1.1" 200 -
Progress:   0%
Progress: 100%
127.0.0.1 - - [25/May/2025 11:47:35] "[35m[1mGET /socket.io/?EIO=4&transport=websocket HTTP/1.1[0m" 500 -
127.0.0.1 - - [25/May/2025 11:47:35] "POST /stt/transcribe_stream HTTP/1.1" 200 -
Error on request:
Traceback (most recent call last):
  File "/Users/petthepotat/Documents/code/dated-projects/04-13-2025_speech-to-text-mac/.venv/lib/python3.11/site-packages/werkzeug/serving.py", line 370, in run_wsgi
    execute(self.server.app)
  File "/Users/petthepotat/Documents/code/dated-projects/04-13-2025_speech-to-text-mac/.venv/lib/python3.11/site-packages/werkzeug/serving.py", line 336, in execute
    write(b"")
  File "/Users/petthepotat/Documents/code/dated-projects/04-13-2025_speech-to-text-mac/.venv/lib/python3.11/site-packages/werkzeug/serving.py", line 261, in write
    assert status_set is not None, "write() before start_response"
AssertionError: write() before start_response
 * Detected change in '/Users/petthepotat/Documents/code/dated-projects/04-13-2025_speech-to-text-mac/backend/api/storage.py', reloading
